<svg width="105" height="105" viewBox="0 0 105 105" fill="none" xmlns="http://www.w3.org/2000/svg">
<circle cx="52.5" cy="52.5" r="52" fill="#E6F1FC" stroke="#142E3D"/>
<g filter="url(#filter0_i_1_10)">
<path d="M44 18C44 16.3431 45.3431 15 47 15H58C59.6569 15 61 16.3431 61 18V87C61 88.6569 59.6569 90 58 90H47C45.3431 90 44 88.6569 44 87V18Z" fill="#66E639"/>
<path d="M87 44C88.6569 44 90 45.3431 90 47V58C90 59.6569 88.6569 61 87 61H18C16.3431 61 15 59.6569 15 58V47C15 45.3431 16.3431 44 18 44H87Z" fill="#66E639"/>
</g>
<path d="M43.5 18V43.5H18C16.067 43.5 14.5 45.067 14.5 47V58C14.5 59.933 16.067 61.5 18 61.5H43.5V87C43.5 88.933 45.067 90.5 47 90.5H58C59.933 90.5 61.5 88.933 61.5 87V61.5H87C88.933 61.5 90.5 59.933 90.5 58V47C90.5 45.067 88.933 43.5 87 43.5H61.5V18C61.5 16.067 59.933 14.5 58 14.5H47C45.067 14.5 43.5 16.067 43.5 18Z" stroke="#0CC21E"/>
<defs>
<filter id="filter0_i_1_10" x="14" y="14" width="78" height="80" filterUnits="userSpaceOnUse" color-interpolation-filters="sRGB">
<feFlood flood-opacity="0" result="BackgroundImageFix"/>
<feBlend mode="normal" in="SourceGraphic" in2="BackgroundImageFix" result="shape"/>
<feColorMatrix in="SourceAlpha" type="matrix" values="0 0 0 0 0 0 0 0 0 0 0 0 0 0 0 0 0 0 127 0" result="hardAlpha"/>
<feOffset dx="1" dy="3"/>
<feGaussianBlur stdDeviation="6.5"/>
<feComposite in2="hardAlpha" operator="arithmetic" k2="-1" k3="1"/>
<feColorMatrix type="matrix" values="0 0 0 0 0 0 0 0 0 0 0 0 0 0 0 0 0 0 0.25 0"/>
<feBlend mode="normal" in2="shape" result="effect1_innerShadow_1_10"/>
</filter>
</defs>
</svg>
